<svg width="24" height="24" viewBox="0 0 24 24" fill="none" xmlns="http://www.w3.org/2000/svg">
<path d="M21.9118 16.9201V19.9201C21.9129 20.1986 21.8559 20.4743 21.7443 20.7294C21.6327 20.9846 21.4691 21.2137 21.2639 21.402C21.0587 21.5902 20.8164 21.7336 20.5525 21.8228C20.2887 21.912 20.0092 21.9452 19.7318 21.9201C16.6546 21.5857 13.6988 20.5342 11.1018 18.8501C8.68563 17.3148 6.63713 15.2663 5.1018 12.8501C3.41178 10.2413 2.36004 7.27109 2.0318 4.1801C2.00681 3.90356 2.03967 3.62486 2.1283 3.36172C2.21692 3.09859 2.35937 2.85679 2.54656 2.65172C2.73376 2.44665 2.9616 2.28281 3.21559 2.17062C3.46958 2.05843 3.74414 2.00036 4.0218 2.0001H7.0218C7.5071 1.99532 7.97759 2.16718 8.34556 2.48363C8.71353 2.80008 8.95388 3.23954 9.0218 3.7201C9.14842 4.68016 9.38325 5.62282 9.7218 6.5301C9.85634 6.88802 9.88546 7.27701 9.80571 7.65098C9.72595 8.02494 9.54066 8.36821 9.2718 8.6401L8.0018 9.9101C9.42535 12.4136 11.4983 14.4865 14.0018 15.9101L15.2718 14.6401C15.5437 14.3712 15.887 14.1859 16.2609 14.1062C16.6349 14.0264 17.0239 14.0556 17.3818 14.1901C18.2891 14.5286 19.2317 14.7635 20.1918 14.8901C20.6776 14.9586 21.1212 15.2033 21.4383 15.5776C21.7555 15.9519 21.924 16.4297 21.9118 16.9201Z" stroke="black" stroke-linecap="round" stroke-linejoin="round"/>
</svg>
